<?xml version="1.0" encoding="UTF-8" standalone="no"?>
<svg
   version="1.0"
   width="600px"
   height="600px"
   viewBox="0 0 600 600"
   preserveAspectRatio="xMidYMid meet"
   id="svg50"
   sodipodi:docname="beat - Kopie.svg"
   inkscape:version="1.2.1 (9c6d41e410, 2022-07-14)"
   xmlns:inkscape="http://www.inkscape.org/namespaces/inkscape"
   xmlns:sodipodi="http://sodipodi.sourceforge.net/DTD/sodipodi-0.dtd"
   xmlns="http://www.w3.org/2000/svg"
   xmlns:svg="http://www.w3.org/2000/svg">
  <defs
     id="defs54">
    <rect
       x="130.8666"
       y="505.3554"
       width="394.93671"
       height="74.196689"
       id="rect222" />
  </defs>
  <sodipodi:namedview
     id="namedview52"
     pagecolor="#ffffff"
     bordercolor="#000000"
     borderopacity="0.25"
     inkscape:showpageshadow="2"
     inkscape:pageopacity="0.0"
     inkscape:pagecheckerboard="0"
     inkscape:deskcolor="#d1d1d1"
     showgrid="false"
     inkscape:zoom="0.60516555"
     inkscape:cx="-3.3048808"
     inkscape:cy="242.90874"
     inkscape:window-width="2560"
     inkscape:window-height="1369"
     inkscape:window-x="-8"
     inkscape:window-y="-8"
     inkscape:window-maximized="1"
     inkscape:current-layer="svg50" />
  <g
     fill="#000000"
     id="g10">
    <path
       d="M243 491.3 c-1.4 -1 -3.7 -2.8 -5 -4.1 -1.4 -1.3 -7.9 -6.7 -14.5 -12 -14.6 -11.8 -18.1 -15.4 -20.7 -21.2 -2.6 -5.6 -13.2 -20.4 -13.6 -19 -0.2 0.5 -2.3 1 -4.7 1 -5.5 0 -6 -0.8 -7.6 -12.6 -1 -7.8 -1.6 -9.5 -5.1 -14.1 -3.5 -4.8 -13.8 -22.8 -13.8 -24.2 0 -1.2 -7.7 -7.4 -13 -10.3 -14.8 -8.4 -18.6 -14.8 -20.5 -34.3 -0.5 -5.2 -1.9 -9.7 -5.4 -17.5 -3 -6.6 -5.2 -13.3 -6 -18 -0.7 -4.1 -1.6 -10 -2.1 -13 -1.8 -10.8 -3.3 -28.8 -2.6 -32.3 0.7 -3.9 4.3 -7.2 10.1 -9.1 l3.2 -1.1 -4.2 -6.5 c-5.4 -8.2 -7.5 -14.5 -7.5 -22 0 -5.6 -0.2 -6 -2.6 -6.6 -2.7 -0.7 -4.4 -3.8 -4.4 -8 0 -1.3 -0.4 -2.4 -1 -2.4 -0.5 0 -1 -1.9 -1 -4.1 0 -5 2.4 -7.6 7.9 -8.5 5.6 -0.9 6.1 -1.2 6.1 -3.6 0 -3.8 4.5 -12.1 8.4 -15.6 2.1 -1.9 5.7 -4.2 8 -5.3 4.7 -2 5.6 -4 5.6 -12.3 0 -2.3 1.1 -7.5 2.5 -11.6 1.4 -4.1 3.4 -11.8 4.5 -17 2.8 -13.8 5.6 -21.4 11 -30.5 4.7 -8 18.6 -26.1 23.1 -30.1 2.6 -2.2 15.5 -10.4 16.5 -10.4 0.3 0 3.6 -1.8 7.3 -4 3.8 -2.1 9.5 -4.9 12.7 -6.1 3.2 -1.2 7.3 -3.2 8.9 -4.5 5.6 -4.1 28.9 -9.4 41.8 -9.4 4.4 0 7.7 -0.4 7.7 -1 0 -0.6 8.3 -1 23 -1 12.7 0 23 0.4 23 0.8 0 0.4 3.5 1.4 7.8 2.1 10 1.7 13.7 2.8 19.2 5.9 2.5 1.4 8.8 4.8 14 7.5 5.2 2.7 10.9 6 12.7 7.3 1.7 1.3 3.4 2.4 3.8 2.4 0.9 0 14.6 9.5 18.2 12.7 2.5 2.3 12.3 18.1 12.3 20 0 0.3 1.9 3.3 4.3 6.7 2.4 3.3 4.9 7.4 5.6 9.1 1.1 2.5 3.5 15.7 5.6 30.7 0.3 2.6 1.5 5.8 2.6 7.1 1 1.4 1.9 4.1 1.9 6 0 3.3 0.4 3.7 5.6 6.4 5.2 2.6 10.4 8 10.4 10.8 0 0.7 2.7 1.1 7.2 1.1 l7.2 -0.1 0.9 4 c0.4 2.2 0.7 6.5 0.4 9.5 -0.5 7.1 -6.4 21.1 -9.5 22.5 -1.7 0.8 -2.2 1.8 -2.2 4.7 l0 3.8 7.3 0.1 c4.6 0 9.6 0.8 13.7 2.2 6.2 2.1 6.6 2.4 9.7 8.2 1.8 3.3 4 8.5 4.9 11.5 1 3 2.1 5.9 2.6 6.5 1.1 1.2 1 27.5 -0.1 27.5 -0.5 0 -1.1 1.2 -1.4 2.8 -1.7 8.9 -4.1 18.2 -6.4 24.5 -1.3 4 -3.2 9.7 -4 12.7 -0.8 3 -2.1 7.8 -2.8 10.5 -1 3.5 -1.3 8.4 -0.9 16.5 0.7 16.5 0.7 16.5 -12.6 16.5 l-10.3 0 -3.3 13.5 c-1.8 7.4 -4 17.1 -4.8 21.6 -3.1 17.5 -17.3 54.4 -24.7 64.7 -1.6 2.2 -2.9 4.6 -2.9 5.4 0 1.6 -8.3 18.7 -10.2 21.1 -0.7 0.9 1.3 -0.3 4.4 -2.6 4.7 -3.4 6.5 -4.2 10.2 -4.2 4.8 0 5.6 0.9 5.6 6.1 0 2.1 -1 3.9 -3.2 6 -1.8 1.6 -3.6 2.9 -4 2.9 -0.3 0 -1.3 0.7 -2.1 1.5 -3 2.9 -11.1 6.5 -14.8 6.5 -3.3 0 -4 -0.4 -4.5 -2.5 l-0.6 -2.5 -2.5 2 c-3.3 2.5 -11.8 2.8 -12.7 0.4 -1.8 -4.6 -0.1 -9.1 4.5 -12 4.5 -2.9 12.3 -14.9 17.3 -26.9 2.1 -4.9 4.8 -10.3 6.1 -12 1.2 -1.6 3 -4.8 4 -7 0.9 -2.2 2.8 -6.1 4.1 -8.6 3.1 -6.1 13 -36.1 14.4 -44.1 0.7 -3.5 3 -13.9 5.2 -23.3 7 -29.5 6.2 -27 9.3 -27.3 4.9 -0.6 7.4 0.7 9.4 4.7 1.8 3.5 3.7 5.1 6.1 5.1 0.5 0 0.6 -4 0.3 -8.9 -0.5 -8 1.1 -19.6 4.2 -29.8 0.2 -0.7 0 -1.5 -0.5 -1.8 -0.6 -0.4 -1 0.1 -1 1.1 0 0.9 -1.2 3.6 -2.7 6 -2.7 4.3 -2.9 4.4 -8 4.4 l-5.3 0 0 -5.1 c0 -4 0.5 -5.8 2.6 -8.2 2.4 -2.9 2.5 -3.6 1.9 -9.4 -0.8 -7.2 -2.4 -11 -7.1 -17 -3.6 -4.4 -4.6 -10.7 -2.2 -13.1 0.9 -0.9 0.9 -1.2 -0.1 -1.2 -0.9 0 -1.2 -2 -0.9 -7.9 l0.3 -7.9 -3.3 2.9 c-5 4.4 -11.8 7.5 -22.7 10.2 -5.5 1.4 -12 3.3 -14.4 4.1 -6.8 2.5 -44.4 2.3 -52.6 -0.2 l-6 -1.9 0.4 11.4 c0.4 15.4 -0.3 20 -4.1 23.5 -1.7 1.5 -4 2.9 -5.2 3 -1.1 0.1 0.4 0.4 3.4 0.7 4.9 0.5 5.6 0.9 7.5 4.1 1.8 3.1 2.4 3.5 5.7 3.2 4.6 -0.4 7.6 1.1 8.4 4.3 0.5 2 1 2.3 3.9 1.8 7.8 -1.3 10.9 1.7 15.6 15 2.6 7.1 3 10.1 3.6 23.2 0.7 16.5 0.1 19 -5.3 24.8 -2.2 2.4 -3.3 2.8 -6.7 2.5 -3.9 -0.3 -4.2 -0.5 -4.5 -3.5 -0.3 -2.9 -0.7 -3.3 -3.3 -3.3 -1.6 0 -3.2 -0.6 -3.5 -1.4 -0.3 -0.8 -1.5 -1.1 -2.9 -0.8 -1.4 0.2 -3.6 0.1 -5 -0.2 -2.2 -0.6 -2.5 -1.1 -2.5 -5.4 0 -2.6 0.7 -7.4 1.5 -10.7 2 -8.2 1.8 -10.2 -0.4 -3.5 -2.4 7.6 -4.8 11 -7.7 11 -1.8 0 -2.4 0.5 -2.4 2.3 0 1.3 -0.5 2.8 -1.2 3.5 -1.7 1.7 -8.9 1.5 -11.6 -0.4 -2.4 -1.7 -15.6 -3.4 -26.7 -3.4 -13.3 0 -34.3 5 -42.6 10.1 -5 3.2 -10 3.7 -11.9 1.4 -0.8 -1 -1.1 -3.2 -0.8 -6 0.5 -4.2 0.4 -4.5 -1.8 -4.5 -2.2 0 -2.4 0.4 -2.4 5 0 4.3 -0.3 5 -1.9 5 -1.6 0 -2 0.8 -2.3 3.8 -0.3 3.6 -0.4 3.7 -4.8 4 -4 0.3 -5.2 -0.2 -9.3 -3.4 -5.8 -4.5 -8.2 -8.2 -10.2 -15.9 -3.1 -12.1 -1.5 -28.4 4.3 -42.7 l2.7 -6.8 4.5 0 c4.1 0 4.7 -0.3 5.7 -3 1 -2.5 1.7 -3 4.6 -3 3.1 0 3.7 -0.4 5 -3.7 l1.5 -3.8 -3.1 -1.7 c-5.6 -2.9 -7.4 -5.7 -8.6 -13.5 -0.6 -3.9 -1.1 -10.4 -1.1 -14.2 0 -3.9 -0.2 -7.1 -0.5 -7.1 -0.6 0 -2.1 0.7 -7.2 3.4 -5.5 2.9 -17.6 6.4 -24.1 7 -3.5 0.3 -7.3 1.1 -8.5 1.8 -1.4 0.7 -7.6 1.2 -17.2 1.2 -16.6 0.1 -28.3 -1.9 -33 -5.6 -2 -1.6 -3.5 -1.9 -6.7 -1.5 -6.3 0.9 -7.2 2.3 -6.2 10.4 l0.8 6.8 0.6 -6 0.5 -6 7.3 -0.3 7.2 -0.3 0 5.3 c0 2.9 -0.4 6.9 -0.9 8.8 -2.4 9.4 -2.5 9 1.5 9 l3.6 0 -0.3 6.9 c-0.2 3.9 0 7.3 0.4 7.7 0.4 0.4 0.7 2.9 0.7 5.5 0 3.8 0.4 4.8 2 5.2 1.8 0.5 2 1.4 2 10.6 l0 10.1 -5.1 0 -5.1 0 0.6 3.8 c2.2 11.7 5.9 17.7 13.7 22 2.8 1.5 7.8 4.8 11.1 7.3 5.1 3.9 6.7 6 11.4 14.8 3 5.7 9.4 15.5 14.2 21.9 14.1 18.8 22 30.3 25.2 36.9 1.9 4 5.2 8.3 9.2 12.2 9.2 8.7 18.7 16.1 20.8 16.1 1.1 0 2.3 0.6 2.7 1.4 0.4 0.8 3 3.1 5.6 5.1 l4.8 3.7 -0.3 5.6 -0.3 5.7 -4.5 0.3 c-3 0.2 -5.3 -0.3 -7 -1.5z m-8.6 -141.5 c-0.8 -2.9 -1.4 -10 -1.5 -15.8 l-0.1 -10.5 -1.4 5 c-1.9 6.4 -1.3 15.5 1.5 21.8 1.1 2.6 2.2 4.7 2.4 4.7 0.2 0 -0.2 -2.3 -0.9 -5.2z m10.3 -26.1 c-0.2 -2.3 -0.3 -0.1 -0.3 4.8 0 5 0.1 6.8 0.3 4.2 0.2 -2.6 0.2 -6.7 0 -9z m42.1 -1.2 c-0.1 -8.4 -0.1 -8.6 -0.8 -3.5 -1.1 7.8 -1.1 17.1 0 14.5 0.5 -1.1 0.8 -6 0.8 -11z m38.8 4.3 c0.4 -3 -0.1 -5.9 -1.6 -9.8 l-2 -5.5 0.5 4.9 c0.3 2.7 0.5 7.9 0.5 11.5 0.1 7.3 1.6 6.7 2.6 -1.1z m-26.9 -1 c-0.2 -1.3 -0.4 -0.3 -0.4 2.2 0 2.5 0.2 3.5 0.4 2.3 0.2 -1.3 0.2 -3.3 0 -4.5z m12.4 -4.5 c-0.8 -4.6 -0.9 -4.5 -0.9 3.2 0 6.6 0.1 7.4 0.9 4.8 0.6 -2 0.6 -5.1 0 -8z m-181.9 -17.5 c-0.4 -9.6 -0.5 -9.8 -2.9 -9.8 -2.3 0 -2.4 0.2 -1.7 4.8 0.6 4.4 4.3 15.7 4.8 15 0.2 -0.2 0.1 -4.7 -0.2 -10z m118.4 -1.6 c-0.5 -0.5 -2.6 5.9 -2.5 7.7 0 0.9 0.7 -0.4 1.4 -2.9 0.8 -2.4 1.3 -4.6 1.1 -4.8z m4.4 -9.4 c0 -0.5 -0.4 -0.8 -1 -0.8 -0.5 0 -1 1 -1 2.3 0 1.8 0.2 1.9 1 0.7 0.5 -0.8 1 -1.8 1 -2.2z m50.3 -16.9 c15 -7.5 16.4 -8 21.5 -7.7 5.3 0.3 5.4 0.3 4.8 -2.4 -0.3 -1.5 -2.2 -4.3 -4.3 -6.2 -3.6 -3.3 -3.8 -3.4 -4.2 -1.3 -0.4 2.9 -1.8 3.7 -6.3 3.7 -3 0 -4.7 -0.8 -7.9 -3.7 -4.7 -4.2 -6.7 -8.4 -7.6 -16.1 -0.5 -4.6 -0.3 -5.7 1.1 -6.8 2.2 -1.5 1.1 -3.9 -4.3 -9.9 -4.7 -5.1 -7.5 -11.1 -9.6 -20.4 -0.9 -4.1 -2.1 -8.3 -2.8 -9.5 -0.6 -1.2 -1.4 -4.6 -1.7 -7.6 l-0.5 -5.5 -9.9 -0.3 c-9.1 -0.3 -9.8 -0.1 -9.1 1.5 1.4 3.3 1.8 34.5 0.6 40.3 -1.1 5.3 -5 12.1 -9.5 16.6 -2 1.9 -1.9 1.9 1 2.2 3.5 0.4 4.4 1.6 4.4 6 0 2.4 -0.9 4.2 -3.5 6.8 -3.3 3.3 -3.5 3.8 -3.5 10.5 l0 7 -5.2 -0.3 -5.3 -0.3 -0.5 -9.5 -0.5 -9.5 -2.2 5.1 c-1.8 4.2 -2.1 5.8 -1.3 8.5 0.6 1.9 1 4.6 1 6.1 0 1.9 1 3.5 3.6 5.5 3.5 2.6 3.7 2.6 5 0.9 1.1 -1.6 2.4 -1.8 10.6 -1.4 7.3 0.4 10.5 1 14.8 3.1 9.5 4.5 12.8 4 31.3 -5.4z m161.2 -13.6 c2.3 -11.2 2 -20.9 -0.7 -26.3 -1.6 -3.1 -3 -4.6 -4.6 -4.8 -4.8 -0.7 -7 3.3 -8.3 15.3 -0.4 4.4 -1.3 8.1 -1.8 8.3 -0.6 0.2 0.6 2 2.6 4 4.4 4.5 8 12.1 9 18.7 l0.7 5 0.8 -6.4 c0.4 -3.5 1.4 -9.7 2.3 -13.8z m-287 -5.8 c3.3 -0.8 7.6 -1.4 9.5 -1.5 8 0 29.2 -8.9 35.5 -14.8 4.4 -4 14.2 -17.3 16 -21.6 2.8 -6.6 2.1 -7 -4.8 -3.2 -10.2 5.7 -15.4 6.6 -38.8 6.6 -11.4 0 -21.9 -0.4 -23.3 -1 -2.2 -0.8 -2.6 -1.6 -2.6 -5.2 0 -3.8 0.7 -5 5.7 -10.6 6.3 -7.2 12.4 -10.6 26.8 -15.3 7.1 -2.3 10.8 -2.9 17.8 -2.9 9.8 0 21.3 3 22.5 5.9 0.4 0.9 1 -2 1.3 -6.4 0.6 -7.5 0.5 -8.3 -1.9 -11.9 -3.7 -5.4 -6.1 -6.7 -16.6 -8.8 -12.1 -2.3 -11.6 -2.4 -11.6 2.1 0 4.3 -1 5.1 -6.5 5.1 -2.4 0 -3.4 0.5 -3.8 2 -0.4 1.6 -1.4 2 -4.7 2 -2.3 0 -4.9 -0.4 -5.8 -0.9 -1.6 -0.8 -1.7 -0.3 -1.7 4.7 l0 5.7 -4.3 0.3 c-2.7 0.2 -5.3 -0.3 -6.7 -1.2 -1.4 -0.9 -2.6 -1.6 -2.9 -1.6 -0.3 0 -0.6 1.9 -0.8 4.3 l-0.3 4.2 -4.9 0.3 c-4 0.3 -6.2 -0.3 -11.3 -2.9 l-6.3 -3.2 0 -4.8 0 -4.9 3.8 0 c3.8 0 3.8 0 3.4 -3.6 -0.3 -2.8 -0.8 -3.4 -2.1 -2.9 -0.9 0.4 -3 1.1 -4.8 1.6 -2.9 0.9 -3.3 1.4 -3.8 5.7 -0.4 2.6 -1.1 6 -1.6 7.6 -0.5 1.8 -0.7 14.7 -0.3 32.1 0.5 21.7 0.4 29.4 -0.4 29.9 -0.7 0.4 -1.2 2.2 -1.2 4.1 0 3.3 0.1 3.4 6.3 4.8 8.1 2 17.7 2 25.2 0.2z m212.5 -11.1 c3 -0.9 10.3 -2.9 16.1 -4.4 12.1 -3.2 13.7 -3.9 19.7 -8.7 6.9 -5.6 7.5 -7 5.4 -12.9 -1.6 -4.3 -3.2 -10.9 -7.4 -29.9 -0.6 -2.7 -3.3 -9.2 -5.9 -14.3 -3.4 -6.4 -4.9 -10.5 -4.9 -13.2 0 -3.4 -0.4 -3.9 -3.1 -4.9 -4.1 -1.4 -3.9 -1.4 -3.9 0.9 0 5 -13.5 8.3 -16.2 4 -1.1 -1.7 -2.4 -2 -7.5 -2 -3.4 0 -6.5 -0.5 -6.8 -1 -0.4 -0.7 -1.3 -0.6 -2.6 0.1 -1.1 0.5 -3.7 0.9 -5.7 0.7 -3 -0.2 -3.8 -0.7 -4 -2.7 l-0.4 -2.3 -1.4 2.1 c-1.2 1.6 -2.6 2.1 -5.8 2.1 -4.8 0 -5.6 -0.9 -5.6 -6.2 0 -4.4 -3.3 -3.4 -4 1.2 -0.5 3.5 -0.6 3.5 -5.5 3.5 -4.7 0 -5 -0.2 -5.3 -2.7 -0.2 -1.6 -0.7 -2.8 -1.2 -2.8 -3.5 0 -27.2 11.2 -29.9 14.2 -1.9 1.9 -2.1 3.5 -2.1 13.8 0 12.3 1.7 19.6 7 30 4.9 9.6 14.7 20.5 21.3 23.5 1.8 0.8 4.1 2 5.2 2.7 9.8 6.1 14.2 7.9 25 10.2 5.5 1.1 24.4 0.5 29.5 -1z m-253.8 -42.2 l-0.5 -22.4 -2.9 3 c-2 2 -3.6 5.1 -4.8 9.8 l-1.9 6.9 2.4 5 c1.3 2.8 3.3 5.9 4.4 6.9 1.6 1.5 2.1 3.1 2.1 7.1 0 4.3 0.7 7.3 1.5 6.3 0.1 -0.2 0 -10.4 -0.3 -22.6z m79.2 -2.5 c-0.9 -2.4 -2.4 -1.1 -2.4 2.1 0 2.4 0.2 2.5 1.5 1.1 0.9 -0.9 1.3 -2.3 0.9 -3.2z m217.4 -28.4 c-1.4 -3.4 -2.9 -5.5 -3.5 -5 -0.4 0.5 3.6 7.7 4.3 7.7 0.2 0 -0.2 -1.2 -0.8 -2.7z m-254.8 -4.8 c0 -1.7 -0.4 -1.8 -4 -0.8 l-2.5 0.7 2.5 0.7 c3.8 1.1 4 1 4 -0.6z m94.5 -4.5 l18.3 0 0.6 -2.5 c0.3 -1.3 1.7 -3.5 3.1 -4.7 l2.4 -2.3 -24.7 0.7 c-26.3 0.7 -33.2 1.4 -29.7 2.9 1.1 0.4 3.6 2.2 5.5 3.8 1.9 1.7 4.1 2.8 4.8 2.6 0.8 -0.3 9.6 -0.5 19.7 -0.5z m-105.7 -7.6 c7.5 -1.4 10.7 -2.4 11.3 -3.6 0.6 -1 2.7 -2.1 4.9 -2.4 3.4 -0.6 3.8 -0.9 3 -2.5 -1.4 -2.5 -1.2 -7.3 0.2 -8.7 1.7 -1.7 12.2 -1.5 19.1 0.3 7.2 1.9 6.7 1.9 6.7 -0.5 0 -1.8 0.7 -2 5.4 -2 3 0 6.7 0.5 8.2 1 1.9 0.8 3 0.8 3.8 0 2.6 -2.6 13.6 -0.1 14.9 3.5 0.8 1.9 4.6 1.9 8.3 0 2 -1 5.9 -1.5 12.5 -1.5 l9.5 0 -1 -6.5 c-1.1 -7.8 0.9 -28.8 2.9 -30.5 0.8 -0.6 3.1 -1 5.1 -0.8 3.4 0.3 3.9 0.7 4.8 3.7 0.6 2.2 0.6 5.7 -0.3 10.5 -0.7 4.5 -0.9 10.4 -0.5 15.3 l0.7 8.1 4.1 0.4 c2.2 0.1 7.7 0.1 12.1 -0.2 7.9 -0.5 8 -0.5 8.5 -3.4 0.4 -2.2 1.9 -3.7 6.9 -6.7 7.2 -4.3 13.4 -5.2 15.6 -2.2 0.9 1.2 2.6 1.6 7.3 1.4 3.5 -0.1 6.2 0.3 6.2 0.8 0 0.6 2.1 1.1 4.8 1.3 4.6 0.3 4.7 0.4 5.2 4.1 l0.5 3.7 2.8 -3 c3.1 -3.3 5.9 -4.3 10.3 -3.8 2.3 0.2 3 0.9 3.4 3.3 l0.5 3 13.5 0.8 c11.1 0.6 14.4 1.2 18.8 3.2 l5.4 2.5 -0.7 -6.3 c-0.3 -3.4 -1.1 -7.8 -1.6 -9.7 -0.5 -1.9 -0.9 -5.4 -0.9 -7.6 0 -4.2 -4.2 -13.7 -7.9 -17.9 -1 -1.1 -3.8 -6 -6.2 -10.9 -2.4 -4.9 -6 -10.5 -7.9 -12.6 -4.4 -4.6 -29.1 -20.9 -33.9 -22.3 -2 -0.6 -5 -2.1 -6.8 -3.4 -1.7 -1.3 -3.4 -2.3 -3.8 -2.3 -0.3 0 -2.4 -1.2 -4.7 -2.6 -7.3 -4.6 -19.8 -6.4 -45.4 -6.4 -24.7 0 -37.1 1.4 -50.1 5.5 -4.4 1.4 -8.7 3.3 -9.7 4.4 -0.9 1 -4.3 2.6 -7.4 3.6 -5.3 1.6 -11.2 4.7 -28.2 14.6 -3.6 2 -8.4 5.7 -10.6 8.1 -3.9 4 -17.4 21.3 -17.4 22.2 0 0.2 -1.6 2.9 -3.5 6.1 -4.1 6.8 -6.8 14.6 -9.5 27.5 -1.1 5.2 -3.1 13.1 -4.5 17.5 -1.4 4.4 -2.5 8.1 -2.5 8.1 0 0.1 1.7 -0.4 3.8 -1.1 2 -0.7 8.4 -2.1 14 -3.1z"
       id="path2" />
    <path
       d="M333 203 c-24.4 -6.5 -25 -6.9 -25 -14.3 0 -3.6 0.2 -3.9 5.3 -6.1 2.8 -1.3 9 -3.6 13.7 -5.2 7.8 -2.6 9.7 -2.8 23.5 -2.9 16.4 0 19.1 0.7 31.3 7.9 l5.3 3.1 -0.3 5.5 c-0.3 5.1 -0.5 5.5 -3 6 -1.5 0.3 -3.6 1.2 -4.5 2 -7.3 6.2 -8.1 6.5 -21.8 6.8 -11.8 0.2 -14.1 -0.1 -24.5 -2.8z m24 -15.1 c0 -1 -0.4 -1.9 -1 -1.9 -0.5 0 -1 1.2 -1 2.6 0 1.4 0.4 2.3 1 1.9 0.6 -0.3 1 -1.5 1 -2.6z"
       id="path4" />
    <path
       d="M250.2 124.8 c-1.7 -1.7 -1.6 -17.9 0.1 -20.2 1 -1.3 2.4 -1.7 5.7 -1.4 l4.5 0.3 0.3 9.2 c0.3 11.3 -0.5 13.3 -5.6 13.3 -2.1 0 -4.3 -0.5 -5 -1.2z"
       id="path6" />
    <path
       d="M266.4 413.6 c-0.3 -0.8 -0.4 -3.1 -0.2 -5.2 0.4 -4.7 2.9 -6.4 14 -9.3 6.2 -1.7 10.8 -2.1 22.9 -2.1 l15.2 0 4.9 3.1 c4.7 3 4.8 3.2 4.8 8 l0 4.9 -6 0 c-3.3 0 -6 -0.3 -6 -0.7 0 -0.5 -1.4 -1.6 -3.1 -2.5 -5.7 -3.3 -23.2 -1.6 -33.3 3.3 -4.7 2.3 -12.4 2.6 -13.2 0.5z"
       id="path8" />
  </g>
  <g
     fill="#ffffff"
     id="g48">
    <path
       d="M0 300 l0 -300 300 0 300 0 0 300 0 300 -300 0 -300 0 0 -300z m251.8 186.8 c0.3 -2.1 -0.6 -3.3 -4.5 -6.3 -2.6 -2 -5.2 -4.3 -5.6 -5.1 -0.4 -0.8 -1.6 -1.4 -2.7 -1.4 -2.1 0 -11.6 -7.4 -20.8 -16.1 -4 -3.9 -7.3 -8.2 -9.2 -12.2 -3.2 -6.6 -11.1 -18.1 -25.2 -36.9 -4.8 -6.4 -11.2 -16.2 -14.2 -21.9 -4.7 -8.8 -6.3 -10.9 -11.4 -14.8 -3.3 -2.5 -8.3 -5.8 -11.1 -7.3 -5.7 -3.1 -10.6 -9.1 -12.2 -15.1 -0.6 -2.2 -1.4 -7.7 -1.9 -12.2 -0.7 -6.6 -1.8 -10.3 -5.5 -18.4 -4.1 -9 -4.9 -12 -7.6 -28.2 -3.3 -20.4 -3.7 -28 -1.4 -29.9 0.8 -0.7 4.6 -1.6 8.3 -2 6.1 -0.6 7 -0.5 9.4 1.6 4.4 3.6 16.4 5.9 30.3 5.8 7 -0.1 13 -0.6 14.2 -1.3 1.2 -0.6 5 -1.4 8.5 -1.7 6.3 -0.6 18.5 -4.1 23.6 -6.8 1.5 -0.7 4.8 -2.4 7.4 -3.6 5.2 -2.5 13.8 -11.2 20.5 -20.6 2.9 -4.1 4.9 -8.3 6.3 -13.9 1.2 -4.4 2.8 -9.9 3.7 -12.3 1.1 -2.9 1.4 -5.7 0.9 -9 -0.3 -2.6 -0.7 -5.6 -0.8 -6.6 -0.2 -1 0.2 -2.1 0.9 -2.3 1.8 -0.6 3.6 12.8 3.1 23.1 -0.6 11.7 -2.2 15 -13.9 26.9 -13.5 13.9 -15.4 19 -12.8 36 1.2 7.6 3 10.7 8.1 13.3 1.5 0.8 3.8 1.4 5.3 1.4 1.4 0 2.5 0.5 2.5 1 0 0.6 -0.4 1 -0.8 1 -0.5 0 -2.1 2.4 -3.5 5.4 -2.5 5.1 -2.7 6.6 -3.3 24.3 -0.7 19.3 0.2 28 3.1 31.9 1.3 1.8 1.5 1.8 3.1 0.2 1.6 -1.6 1.6 -2.1 0.3 -6 -1 -3.2 -1.4 -9.2 -1.3 -22.9 0.2 -18.1 0.3 -18.9 3 -24.9 2.3 -5.1 2.5 -6.5 1.6 -8.1 -1.1 -1.7 -0.9 -1.9 1.5 -1.9 1.4 0 3.5 -0.7 4.5 -1.6 1.5 -1.5 2.3 -1.5 6.5 -0.4 2.7 0.8 6.7 2.2 9 3.2 l4.2 1.8 -2.9 4.4 c-1.6 2.4 -4.4 7.4 -6.1 11.2 -2.8 6 -3.2 8.3 -3.7 17.8 -0.6 12.9 1 21.6 3.9 21.6 2.4 0 3.5 -4.3 2 -7.6 -1.4 -3.2 -1.4 -16.7 0 -21.9 1.3 -4.6 7.4 -17.2 9.5 -19.6 0.8 -0.8 1.4 -2.3 1.4 -3.1 0 -1.2 1.6 -1.6 7.8 -2 5.2 -0.3 9.1 -1.2 12 -2.7 2.3 -1.2 4.2 -1.7 4.2 -1.1 0 0.6 2.2 3.9 4.9 7.3 6.5 8.3 9.5 17.2 9.6 28.8 0 7.9 -0.2 8.8 -2.7 11.8 -3.1 3.6 -3.5 5.9 -1.4 6.7 2.2 0.8 6.2 -2.3 7.7 -5.9 2 -4.5 1.6 -21.6 -0.6 -29.2 -2.4 -8.5 -11.3 -21.5 -14.7 -21.5 -0.7 0 0.6 -1 2.9 -2.2 l4.2 -2.1 3.1 2.6 c1.7 1.5 3.6 2.7 4.1 2.7 0.5 0 0.9 1 0.9 2.3 0 1.2 0.8 3.6 1.8 5.2 1 1.7 3.6 7.8 5.7 13.8 3.4 9.6 3.7 11.4 3.3 17.7 -0.4 5.7 -1.2 8.1 -3.8 12.2 -2.9 4.8 -3 5.3 -1.5 6.4 2.6 1.9 4.3 0.7 7.2 -5 2.1 -4 2.7 -7 3.1 -13.6 0.4 -7.8 0.1 -9.5 -3.2 -19.4 -2 -5.9 -4.6 -12.4 -5.7 -14.4 l-1.9 -3.7 3.2 -0.3 c4.6 -0.5 8.6 -3.7 9.8 -8 1.3 -4.7 1.3 -19.3 0 -22.7 -1.3 -3.4 -7.1 -8.9 -11.8 -11.2 -3.3 -1.6 -8.2 -7.3 -8.2 -9.5 0 -0.8 6.3 2.5 17.5 9.2 10.6 6.4 18.6 8 39.3 8 13.7 0 19 -0.4 22.3 -1.6 2.4 -0.8 8.9 -2.7 14.4 -4 5.5 -1.4 12.6 -3.9 15.7 -5.6 7.1 -3.8 14.8 -11.7 14.8 -15.3 0 -1.4 0.6 -2.5 1.3 -2.5 0.7 0 3.2 -1.6 5.4 -3.5 3.5 -3 4.9 -3.5 9 -3.5 6.7 0.1 12.7 3 14.1 6.9 l1.1 3 -3.5 -3.4 c-3.1 -3.1 -4.1 -3.5 -8.7 -3.5 -11.2 0 -16.1 5.9 -17.2 21.1 -0.6 7 -0.4 8.7 0.7 9.2 2.8 1 3.9 -1 4.7 -8.9 1.3 -12.2 2.9 -15 9.4 -16.1 8 -1.3 11.6 5 11.7 20.4 0 5.6 -0.7 13.5 -1.5 17.5 -0.9 4 -2.1 11.9 -2.6 17.6 -0.9 9.2 -0.9 10.6 0.6 12.2 1.4 1.5 1.5 2.5 0.6 5.7 -2.6 9.2 -5.1 21.3 -5.1 24.4 0 1.9 0.5 5.1 1.1 7.2 0.6 2.1 0.7 5.2 0.4 6.9 -0.7 2.8 -0.9 2.9 -4.3 2.3 -6.4 -1.1 -7.2 -1.6 -9.2 -5.4 -1.9 -3.8 -4.7 -5.9 -6 -4.4 -0.3 0.4 -1.2 3.1 -1.8 5.8 -0.6 2.8 -2.9 12.4 -5.1 21.5 -2.2 9.1 -4.4 19.3 -5.1 22.8 -1.4 8 -11.3 38 -14.4 44.1 -1.3 2.5 -3.2 6.4 -4.1 8.6 -1 2.2 -2.8 5.4 -4 7 -1.3 1.7 -4 7.1 -6.1 12 -5 12 -12.8 24 -17.3 26.9 -3 1.9 -5 4.6 -4.5 6.1 2.4 6.2 15.6 -7.2 24.1 -24.6 2.4 -4.9 4.3 -9.5 4.3 -10.2 0 -0.8 1.3 -3.2 2.9 -5.4 7.6 -10.5 21.8 -48.4 25.6 -68.3 0.9 -4.7 3 -14.7 4.8 -22.2 l3.3 -13.7 3.2 2.1 c4.6 2.9 15.2 3.7 17.2 1.3 1.6 -1.9 1.9 -11.3 0.7 -19.5 -0.4 -3.2 -0.1 -6.4 1.3 -11 1 -3.6 2.5 -9 3.3 -12 0.8 -3 2.7 -8.7 4 -12.7 2.3 -6.3 4.7 -15.6 6.4 -24.5 0.3 -1.6 0.9 -2.8 1.4 -2.8 1.1 0 1.2 -20.3 0.1 -21.6 -0.5 -0.5 -1.6 -3.4 -2.6 -6.4 -0.9 -3 -3.1 -8.2 -4.9 -11.5 -3.1 -5.8 -3.5 -6.1 -9.7 -8.2 -9.4 -3.1 -13.8 -3 -18.9 0.8 -2.4 1.7 -4.5 2.8 -4.8 2.5 -0.3 -0.3 0.2 -3.2 1.1 -6.4 0.9 -3.2 1.6 -7.4 1.6 -9.3 0 -2.6 0.5 -3.7 2.2 -4.4 1.4 -0.6 3.5 -3.9 5.7 -9 2.8 -6.3 3.6 -9.2 3.5 -13.8 -0.2 -8.8 -0.3 -8.8 -13.6 -5 -1.4 0.4 -1.8 -0.1 -1.8 -1.9 0 -4 -4.4 -9.1 -10.4 -12.1 -5.2 -2.7 -5.6 -3.1 -5.6 -6.4 0 -1.9 -0.9 -4.6 -1.9 -6 -1.1 -1.3 -2.3 -4.5 -2.6 -7.1 -2.1 -15 -4.5 -28.2 -5.6 -30.7 -0.7 -1.7 -3.2 -5.8 -5.6 -9.1 -2.4 -3.4 -4.3 -6.4 -4.3 -6.7 0 -1.9 -9.8 -17.7 -12.3 -20 -3.6 -3.2 -17.3 -12.7 -18.2 -12.7 -0.4 0 -2.1 -1.1 -3.8 -2.4 -1.8 -1.3 -7.5 -4.6 -12.7 -7.3 -5.2 -2.7 -11.5 -6.1 -14 -7.5 -5.5 -3.1 -9.2 -4.2 -19.2 -5.9 -4.3 -0.7 -7.8 -1.7 -7.8 -2.1 0 -0.4 -9 -0.8 -20 -0.8 -12.7 0 -20 0.4 -20 1 0 0.6 -3.3 1 -7.7 1 -12.9 0 -36.2 5.3 -41.8 9.4 -1.6 1.3 -5.7 3.3 -8.9 4.5 -3.2 1.2 -8.9 4 -12.7 6.1 -3.7 2.2 -7 4 -7.3 4 -1 0 -13.9 8.2 -16.5 10.4 -4.5 4 -18.4 22.1 -23.1 30.1 -5.4 9.1 -8.2 16.7 -11 30.5 -1.1 5.2 -3.1 12.9 -4.5 17 -1.4 4.1 -2.5 9.3 -2.5 11.6 0 8.3 -0.9 10.3 -5.6 12.3 -2.3 1.1 -5.9 3.4 -8 5.3 -3.9 3.5 -8.4 11.8 -8.4 15.6 0 2.4 -0.5 2.7 -6.1 3.6 -2 0.4 -4.6 1.5 -5.8 2.5 -2.2 1.9 -2.8 4.1 -1.1 4.1 0.6 0 1 1.1 1 2.4 0 4.2 1.7 7.3 4.4 8 2.4 0.6 2.6 1 2.6 6.6 0 7.6 2.1 13.7 7.7 22.5 6.5 10 7.3 11.4 7.3 12 0 0.3 -1.4 0.5 -3.2 0.5 -4.1 0 -11.7 4.5 -12.9 7.7 -1 2.6 0 15.6 2.1 28.3 0.5 3 1.4 8.9 2.1 13 0.8 4.7 3 11.4 6 18 3.5 7.8 4.9 12.3 5.4 17.5 1.9 19.5 5.7 25.9 20.5 34.3 5.3 2.9 13 9.1 13 10.3 0 1.4 10.3 19.4 13.8 24.2 3.5 4.6 4.1 6.3 5.1 14.1 1.3 9.7 2.4 12.6 4.6 12.6 2 0 2.6 -2.9 1.5 -7.5 -0.5 -2.2 -0.7 -4.1 -0.6 -4.3 0.5 -0.4 6 6.8 7.6 9.8 0.7 1.4 3.4 5.4 6 9 2.6 3.6 5.7 8.5 6.8 11 2.6 5.8 6.1 9.4 20.7 21.2 6.6 5.3 13.1 10.7 14.5 12 6.7 6.3 10.3 7.1 10.8 2.6z m150.6 -0.3 c2.7 -1.4 5.5 -3.2 6.3 -4 0.8 -0.8 1.8 -1.5 2.1 -1.5 1.9 0 7.1 -6 6.6 -7.4 -1 -2.5 -3.1 -1.9 -8.9 2.4 -3 2.2 -7 4.7 -8.9 5.7 -3.8 1.7 -4.9 3.4 -4 5.8 0.8 2 1.3 1.9 6.8 -1z m-125.8 -76.4 c10.4 -5 33 -6.9 39.3 -3.3 1.7 0.9 3.1 2 3.1 2.5 0 0.4 1.4 0.7 3 0.7 4.8 0 3.9 -3.2 -1.8 -6.9 -4.8 -3 -5.1 -3.1 -17.1 -3.1 -9.1 0 -14.1 0.5 -19.7 2 -11.5 3.1 -15.2 5.4 -14 8.5 0.7 2 2.4 1.9 7.2 -0.4z m-46.9 -39.7 c0.4 -1 -1.2 -3.3 -4.9 -6.7 -5.9 -5.6 -8.3 -10.9 -9.4 -20.2 -0.6 -5.4 0.9 -13 5.2 -24.9 2.6 -7.4 2.6 -9.6 -0.3 -9.6 -3.5 0 -10.3 21.1 -10.3 32 0 6.7 2.3 16.2 5 20.6 2.2 3.5 10.6 10.4 12.7 10.4 0.7 0 1.6 -0.7 2 -1.6z m140.8 -4.1 c5.1 -5.6 5.8 -8.6 5.1 -21.7 -0.7 -12.6 -3.4 -23.2 -7.8 -30.4 -2.2 -3.7 -5.6 -5.8 -6.9 -4.5 -0.5 0.5 -2.4 0.7 -4.3 0.5 -2.6 -0.3 -3.6 -1 -4 -2.8 -0.8 -3.1 -4.2 -5 -6.2 -3.3 -1.2 1 -1.2 1.5 -0.1 3.3 2.4 3.7 5.1 16.8 5.2 25.1 0 4.4 -0.9 12 -1.9 16.8 -1.7 7.6 -1.7 9 -0.5 9.8 3.4 2.1 5.8 -4.6 7.9 -22.1 0.5 -4.4 0.8 -5 1.3 -3 0.8 2.8 1.2 21.1 0.6 25 -0.3 1.9 0.1 2.6 1.7 2.8 4.1 0.6 4.8 -4 3.5 -21.6 -0.6 -8.6 -1.8 -17.8 -2.6 -20.4 -1.5 -5.1 -0.7 -6.3 1.7 -2.5 3.3 4.9 5.8 14.2 6.9 24.9 1.2 12 0.9 13.8 -3.7 20.9 -1.7 2.6 -1.4 5.9 0.5 5.9 0.6 0 2.2 -1.2 3.6 -2.7z m-119.3 -3.5 c3.9 -2.7 15.8 -6.3 27.4 -8.3 7.8 -1.4 13.4 -1.7 23.7 -1.3 7.4 0.3 14 0.2 14.7 -0.2 1.6 -1 5.2 -0.1 4.4 1.1 -0.3 0.5 0.1 0.9 1 0.9 0.8 0 2.8 0.8 4.5 1.7 2.7 1.6 3.2 1.6 4.6 0.3 2.1 -2.2 0 -6.8 -3.5 -7.6 -1.4 -0.4 -5.1 -1.5 -8.2 -2.6 -4.1 -1.5 -6.9 -1.8 -10.5 -1.4 -2.6 0.4 -9.3 1 -14.8 1.5 -12.9 1.1 -36.5 6.4 -43.3 9.7 -5.8 2.9 -8 5.7 -6.2 8 1.3 1.4 1.7 1.3 6.2 -1.8z m-17.2 -1 c0 -1.2 -0.7 -2.9 -1.5 -3.8 -2.9 -3.2 -5.5 -12.7 -5.5 -20.1 0 -7.2 2.6 -19.2 6 -27.9 1.6 -4.2 1.7 -5 0.5 -6 -2.6 -2.2 -4.2 -0.3 -6.8 8.2 -4.3 13.8 -4.7 15.9 -4.7 25.6 0 9.9 2 17.5 6 23.2 2.5 3.6 6 4.1 6 0.8z m105.8 -14 c4.7 -7.7 6.6 -21.9 4.1 -31.2 -4.1 -15.6 -6.5 -20.6 -9.9 -20.6 -2.4 0 -2.6 2 -0.4 6.2 7.3 14.1 7.1 41.6 -0.3 43.4 -2.6 0.7 -2.7 0.8 -1.3 3.5 1.7 3.1 5.5 2.4 7.8 -1.3z m-84.8 1.2 c1.2 -0.8 1.2 -1.2 0 -3.6 -1.1 -2 -1.5 -6.4 -1.4 -17.3 0 -13.5 0.2 -15.1 2.8 -21.6 1.5 -3.8 3.8 -8.4 5.2 -10.2 2.6 -3.4 2.3 -6.3 -0.6 -6.3 -2.7 0 -7.7 8.4 -10.6 17.7 -2.4 7.7 -2.6 9.3 -2.3 23.8 0.4 14.1 0.6 15.8 2.3 17.1 2.3 1.6 2.6 1.7 4.6 0.4z m17.4 -16 c0.2 -13.5 2.1 -22.5 5.8 -27 1.6 -2 1.9 -2.1 1.3 -0.5 -1.2 3.5 -3.4 21.8 -3.5 28.6 0 7 1.4 9.7 4.6 8.5 1.3 -0.5 1.6 -1.7 1.1 -6.4 -0.6 -7 1.8 -27.4 3.5 -30.2 3.4 -5.4 5.1 1.5 4.5 17.9 -0.3 6.9 -0.7 13.7 -0.9 15.1 -0.2 1.9 0.2 2.6 1.8 2.8 1.7 0.2 2.4 -0.5 3.3 -2.9 1.4 -4 1.4 -30.1 0.1 -35 -1 -3.7 -1.5 -4 -8.5 -5.1 -1.1 -0.2 -2.2 -1.2 -2.5 -2.3 -0.3 -1.1 -1.5 -2.1 -2.6 -2.3 -1.5 -0.2 -2.9 1.4 -6.1 7 -5.3 9.4 -6.1 12.6 -6.7 28.7 -0.6 13.7 0 16.5 3.2 15.9 1.1 -0.2 1.5 -2.8 1.6 -12.8z m31.2 9.2 c2.4 -1.6 3.4 -5.4 3.4 -13 0 -7.7 -2.4 -22.6 -4 -24.7 -0.4 -0.5 -1.3 -2.8 -2 -5 -1.6 -5 -2.7 -6.5 -5.1 -6.5 -3 0 -3 1.5 0 8.2 3.3 7.5 6.1 20.2 6.1 28 0 4.1 -0.5 6.2 -2.1 8.2 -1.1 1.5 -1.8 3.3 -1.5 4.1 0.6 1.6 3.4 2 5.2 0.7z m-160.6 -16.3 c0 -6.2 -0.2 -7.1 -2 -7.6 -1.7 -0.4 -2 -1.4 -2 -5.4 0 -2.6 -0.5 -5.1 -1.1 -5.5 -0.8 -0.4 -0.9 -2.9 -0.5 -7.5 0.7 -6.5 0.6 -6.9 -1.3 -6.9 -3.5 0 -4.4 3.4 -3.7 13.9 0.7 9.6 2 15.1 3.7 15.1 0.5 0 0.9 1.8 0.9 3.9 0 5.5 0.8 7.1 3.6 7.1 2.3 0 2.4 -0.3 2.4 -7.1z m311.2 -24.2 c3.5 -5.5 4.3 -10.9 2.9 -19.4 -1.4 -8.1 -4.8 -15.6 -8.9 -20 -6 -6.4 -9.4 -2.9 -3.9 3.9 5.4 6.7 6.7 10.5 7.4 20.3 0.5 8.7 0.5 9.1 -2.1 12.2 -3.3 3.9 -3.5 7.3 -0.3 7.3 1.5 0 3 -1.3 4.9 -4.3z m-322.1 -19.2 c2.8 -12.4 2.7 -12.7 -2.3 -12.3 l-4.3 0.3 -0.3 8 c-0.4 10.3 0.2 12.7 3 12.3 1.8 -0.3 2.4 -1.6 3.9 -8.3z"
       id="path12" />
    <path
       d="M268 284.3 c-7.1 -3.3 -17.8 -4.4 -19.2 -1.9 -1.4 2.5 -7.5 2.1 -11.3 -0.8 -2.5 -2 -3.4 -3.5 -3.9 -7 -0.3 -2.6 -0.9 -6.6 -1.2 -9 -0.9 -6.6 2.6 -13.5 11.4 -22.1 9.6 -9.5 13.9 -15.7 15.3 -22.5 1.4 -6.7 0.6 -31.1 -1.2 -35.6 -2.3 -5.9 -1.3 -6.4 12 -6.4 6.6 0 12.5 0.2 13.3 0.5 0.9 0.4 1.2 1.9 1 4.9 -0.2 2.6 0.2 5.5 1.2 7.3 0.8 1.7 2.3 6.4 3.1 10.4 2.1 9.3 4.7 14.9 9.9 21 4.1 4.7 7.9 10.3 12.6 18.4 3.3 5.7 5.8 8.3 10 10.6 8.9 4.7 13 11.6 11.1 18.6 -0.6 2.1 -1.1 5.2 -1.1 6.8 0 1.7 -0.5 3.6 -1.2 4.3 -1.2 1.2 -9.8 1.7 -9.8 0.6 0 -1.3 2.4 -5 4.3 -6.5 2.4 -2 1.7 -4.9 -1.3 -4.9 -1.1 0 -9.1 3.6 -17.8 8 l-15.9 8 -7.9 0 c-6.4 -0.1 -9 -0.6 -13.4 -2.7z m-20 -21.3 c0 -6.6 0.2 -7.1 3.5 -10.4 2.2 -2.2 3.3 -4.1 2.9 -5.1 -1.1 -2.7 -4.1 -1.6 -7.8 2.7 -3.4 3.9 -3.6 4.6 -3.6 11.3 0 7.7 0.3 8.5 3.2 8.5 1.6 0 1.8 -0.9 1.8 -7z m67.4 -4.6 c2.2 -0.8 2 -4.1 -0.2 -4.8 -2.6 -0.9 -6.5 -6.4 -7.7 -11.1 -0.9 -3.3 -1.5 -4 -3.5 -4 -2.2 0 -2.5 0.4 -2.2 3.3 0.5 5.3 2.8 9.6 7.1 13.5 4.5 4.1 4.3 4 6.5 3.1z"
       id="path14" />
    <path
       d="M469.6 281 c0.3 -3.6 1.3 -9.4 2.1 -13 2.8 -13.1 2.8 -28.6 -0.2 -36.5 -0.5 -1.3 -0.5 -1.7 0.2 -1 0.6 0.6 1.9 3.2 2.9 6 3.7 9.9 1.7 33.1 -4.2 47.5 -1.4 3.4 -1.4 3.3 -0.8 -3z"
       id="path16" />
    <path
       d="M147.9 259.3 l-6.7 -1.5 0.5 -6.2 c0.3 -3.3 1 -6.6 1.5 -7.3 0.5 -0.6 0.6 -12.9 0.3 -29.8 -0.4 -17.6 -0.2 -29.9 0.4 -31.8 0.5 -1.8 1.2 -5.3 1.6 -7.8 l0.6 -4.7 6.7 -2.2 c8.8 -3 29.4 -7 36 -7 3.8 0 5.2 0.4 5.2 1.4 0 1.8 11.6 7.7 13.6 6.9 2.3 -0.9 1.6 -3 -1.8 -5.7 l-3.3 -2.6 7.1 0 c7.5 0 21.8 2.2 26.7 4.2 1.6 0.6 4.7 3.5 6.8 6.4 l4 5.2 -1.2 6.1 c-1 4.8 -1 7.4 -0.1 11.7 1 5 0.9 6.3 -1.2 13.2 -1.3 4.2 -2.8 9.6 -3.5 11.8 -1.2 4.4 -11.1 18.6 -16.5 23.6 -6.4 6 -27.7 14.8 -35.7 14.8 -2 0 -5.6 0.6 -8.2 1.4 -6.3 1.9 -24.6 1.8 -32.8 -0.1z m69.6 -41.8 c11.3 -3 24.5 -12.2 24.5 -17.2 0 -1.4 -0.6 -2.3 -1.5 -2.3 -0.8 0 -1.9 -0.9 -2.5 -1.9 -1.4 -2.6 -12.6 -6.1 -19.7 -6.1 -6.5 0 -20.1 4 -29.9 8.8 -6 3 -17.4 14.1 -17.4 17 0 2.4 4.6 3.1 22.5 3.1 13.3 0.1 19.7 -0.3 24 -1.4z m-45.7 -29.7 c0.4 -1.9 -10.4 -7.8 -14.3 -7.8 -4.7 0 -3 3.4 3.3 6.8 6.2 3.3 10.5 3.7 11 1z m14.7 -4.8 c1.4 -2.3 -0.9 -4.9 -7.8 -8.3 -7.6 -3.8 -15 -5.6 -16.1 -3.9 -1.1 1.8 0.5 4.2 3.3 4.8 4.6 1 10.2 3.4 13.9 5.9 3.9 2.7 5.7 3.1 6.7 1.5z m12.3 -11.7 c0.3 -1.7 -0.5 -2.4 -4 -3.7 -10.5 -3.8 -14.8 -4 -14.8 -0.7 0 1.1 2.3 2.4 7.8 4.2 9.1 3.1 10.6 3.1 11 0.2z"
       id="path18" />
    <path
       d="M187.7 213.2 l-7.8 -0.3 2.1 -2.7 c3.2 -4.1 7.1 -6.3 8.7 -5 0.7 0.6 1.3 1.7 1.3 2.4 0 0.8 0.9 2.3 2.1 3.5 1.1 1.1 1.9 2.1 1.7 2.2 -0.1 0.1 -3.8 0.1 -8.1 -0.1z"
       id="path20" />
    <path
       d="M205.1 211.2 c-4.7 -1.6 -9 -5.6 -9.1 -8.4 0 -1.2 2.5 -2.5 9.7 -4.9 9.3 -3.1 9.7 -3.1 11 -1.3 0.8 1.1 1.3 3.6 1.1 5.8 -0.2 3.1 -1 4.4 -4.3 7 -4 3.2 -4 3.2 -8.4 1.8z m3.6 -7.8 c0.3 -0.8 0.1 -2 -0.5 -2.6 -1.5 -1.5 -4.3 0.8 -3.5 2.8 0.7 1.9 3.2 1.8 4 -0.2z"
       id="path22" />
    <path
       d="M222.8 203.3 c0.2 -3.8 0.6 -7 0.8 -7.2 0.5 -0.6 11.3 2.9 11.9 3.8 0.6 1 -2.9 4.2 -8.2 7.5 -2.4 1.4 -4.4 2.6 -4.6 2.6 -0.2 0 -0.1 -3 0.1 -6.7z"
       id="path24" />
    <path
       d="M128.5 242.1 c-8 -12.4 -9.1 -15 -9.9 -24.2 l-0.7 -7.4 3 6 c1.7 3.3 3.1 7 3.1 8.1 0 2.5 7.9 13.7 11 15.6 1.6 1 2 2.4 2 6.5 0 3 -0.5 5.3 -1 5.3 -0.6 0 -3.9 -4.4 -7.5 -9.9z"
       id="path26" />
    <path
       d="M356.5 249.4 c-10.8 -2.3 -15.2 -4.1 -25 -10.2 -1.1 -0.7 -3.4 -1.9 -5.2 -2.7 -6.6 -3 -16.4 -13.9 -21.3 -23.5 -5.7 -11.1 -7 -17.4 -7 -33 0 -17.3 -0.2 -17 12.3 -22.9 11.7 -5.6 17.9 -7.9 22.3 -8.3 3.6 -0.3 3.9 -0.1 4.4 2.7 0.4 2.1 1.1 3 2.5 3 1.5 0 2.1 -0.8 2.5 -3.5 l0.5 -3.5 6.3 -0.3 6.3 -0.3 -1.5 3 c-1.7 3.2 -1.2 6.1 0.9 6.1 1.5 0 5.5 -5.1 5.5 -6.9 0 -0.6 1.2 -1.6 2.6 -2.1 3.1 -1.2 10.4 -1.3 10.4 -0.2 0 0.5 -1.8 1.8 -4 3.1 -2.4 1.4 -4 3 -4 4.1 0 3 1.6 3.2 5.9 1 5 -2.5 5.7 -2.5 6.4 0 0.7 2.8 7.6 2.8 10.1 0.1 2.4 -2.7 1.3 -6.1 -2 -6.1 -2.3 0 -3.3 -1.4 -1.6 -2.3 1.5 -0.9 12.9 1.1 17.2 3.1 2.5 1.1 6.8 2.9 9.7 4 2.8 1.1 9 4 13.7 6.6 9.8 5.4 11.8 8.2 12.2 17.6 0.1 3 0.5 11.2 0.9 18.3 0.5 7.7 0.4 12.7 -0.2 12.7 -1 0 -3.7 -10.9 -4.9 -19.2 -0.7 -5.5 -2.2 -9.9 -4.9 -14.8 -1.1 -1.9 -3.3 -6.2 -5 -9.5 -3.2 -6.2 -5.7 -7.9 -6.9 -4.8 -0.5 1.2 0.9 5 4.2 11.3 2.7 5.2 5.4 11.8 6 14.5 4.4 19.7 5.8 25.6 7.4 30 3 8.4 2.5 11.2 -3.1 16.6 -6.4 6.1 -9.2 7.5 -22 10.9 -5.8 1.5 -13.1 3.5 -16.1 4.4 -4 1.1 -9.4 1.5 -19.5 1.5 -7.7 -0.1 -14.9 -0.3 -16 -0.5z m14.5 -49.4 c1.9 -1.4 4.3 -3.2 5.3 -4 0.9 -0.8 3 -1.7 4.5 -2 2 -0.4 2.8 -1.2 3 -3 0.2 -2.1 -0.6 -3 -5 -5.6 -11.6 -6.9 -15.2 -7.9 -28.3 -7.8 -10.4 0 -13.2 0.4 -20.5 2.9 -10.6 3.5 -19 7.1 -19 8.2 0 2.4 3.6 5.3 8.3 6.7 22.6 6.6 28.1 7.6 38.2 7.3 8.8 -0.2 10.5 -0.5 13.5 -2.7z m27.8 -41 c5.8 -3.6 3.2 -7.6 -3 -4.4 -4 2.1 -5 3.4 -3.6 5.1 1.4 1.8 2.7 1.6 6.6 -0.7z"
       id="path28" />
    <path
       d="M344.7 196.8 c-3.4 -1.2 -4.5 -5 -2.3 -8.3 0.9 -1.3 1.6 -3.1 1.6 -3.9 0 -1.9 5.7 -3 11.1 -2.3 4.9 0.6 4.8 0.6 5.6 5 0.4 2.9 0 4.2 -2.3 7.1 -2.5 3.1 -3.5 3.6 -6.9 3.5 -2.2 0 -5.2 -0.5 -6.8 -1.1z m7.1 -7.6 c0.3 -1.7 -0.2 -2.2 -1.7 -2.2 -1.4 0 -2.1 0.6 -2.1 1.8 0 3.8 3.3 4.1 3.8 0.4z"
       id="path30" />
    <path
       d="M365 195.1 c0.5 -1.1 1 -3.5 1 -5.5 0 -4.5 0.9 -4.9 4.8 -2.4 3.7 2.3 3.4 3.5 -1.8 7.3 -4.1 3 -5.4 3.2 -4 0.6z"
       id="path32" />
    <path
       d="M328.7 192.5 c-9.2 -1.9 -9 -2.9 1.2 -6.5 7.5 -2.6 8.9 -2.4 7.2 0.8 -0.6 1.2 -1.1 3 -1.1 4.1 0 2.8 -0.7 2.9 -7.3 1.6z"
       id="path34" />
    <path
       d="M133.6 230.3 c-3.3 -4.2 -3.6 -5.2 -3.1 -8.8 0.6 -3.4 0.3 -4.4 -1.6 -6 -1.2 -1.1 -3 -3.9 -4 -6.2 -1 -2.4 -2.3 -4.3 -2.8 -4.3 -1.8 0 -2.2 -3.7 -0.6 -6.6 0.8 -1.6 2 -5.3 2.6 -8.3 0.8 -3.9 2.1 -6.5 5 -9.6 3.5 -3.8 9.3 -7.4 10.3 -6.4 0.3 0.2 0 2.7 -0.6 5.4 -0.6 3.1 -0.7 14.5 -0.3 29.7 0.4 14.8 0.2 24.8 -0.3 25.2 -0.5 0.3 -2.6 -1.5 -4.6 -4.1z"
       id="path36" />
    <path
       d="M443 186.4 c-1.8 -4.6 -1.2 -7.3 1.5 -8 1.4 -0.4 2.8 -0.4 3 -0.2 0.6 0.6 -2.4 10.8 -3.1 10.8 -0.2 0 -0.9 -1.2 -1.4 -2.6z"
       id="path38" />
    <path
       d="M247 167.2 c0 -0.5 -1.8 -2.3 -4 -4.1 -2.9 -2.3 -6 -3.6 -12 -4.8 -4.4 -1 -8 -2.1 -8 -2.5 0 -0.4 1.5 -0.9 3.3 -1.2 1.7 -0.3 6.4 -1 10.2 -1.6 3.9 -0.6 18.3 -1.5 32 -2 15.5 -0.5 27.5 -1.4 31.5 -2.3 3.6 -0.8 9.7 -1.7 13.5 -2.1 6.5 -0.5 6.8 -0.5 4.5 0.9 -1.4 0.8 -3.1 1.4 -3.9 1.5 -0.8 0 -2.2 0.6 -3 1.4 -0.9 0.7 -3.6 2.1 -6.1 3 -5.9 2.3 -10 5.9 -11.6 10.4 -1.1 3.1 -1.6 3.6 -3.6 3.2 -3.8 -0.8 -35 -0.6 -39 0.3 -2.1 0.4 -3.8 0.4 -3.8 -0.1z"
       id="path40" />
    <path
       d="M145 160.7 c0 -2.3 1.1 -7.8 2.5 -12.2 1.4 -4.4 3.4 -12.3 4.5 -17.5 2.7 -12.9 5.4 -20.7 9.5 -27.5 1.9 -3.2 3.5 -5.9 3.5 -6.1 0 -0.9 13.5 -18.2 17.4 -22.2 2.2 -2.4 7 -6.1 10.6 -8.1 17 -9.9 22.9 -13 28.2 -14.6 3.1 -1 6.5 -2.6 7.4 -3.6 1 -1.1 5.3 -3 9.7 -4.4 13.5 -4.3 25.2 -5.5 53.1 -5.5 28.8 0 40.8 1.6 48.4 6.4 2.3 1.4 4.4 2.6 4.7 2.6 0.4 0 2.1 1 3.8 2.3 1.8 1.3 4.8 2.8 6.8 3.4 4.7 1.3 29.5 17.6 33.9 22.3 1.9 2.1 5.7 8 8.3 13.3 2.6 5.3 5.2 9.9 5.7 10.2 2.7 1.7 7.3 12.2 8.1 18.3 2.2 18.1 4.1 27.4 6.1 29.7 3 3.4 -1.2 2.7 -12.3 -2.1 -6.8 -3 -8.9 -3.4 -21 -4.1 -13.3 -0.8 -13.4 -0.8 -13.7 -3.3 -0.2 -1.4 -0.8 -2.9 -1.2 -3.4 -1 -1 -5.8 1.8 -7.8 4.5 -0.8 1.1 -3.2 2 -6.8 2.5 -6.6 0.8 -9.1 -0.7 -4.7 -2.8 1.7 -0.8 2.8 -2.1 2.8 -3.3 0 -1.7 -0.7 -2 -4.3 -2 -2.7 0 -4.6 -0.5 -5.2 -1.5 -0.8 -1.3 -1.3 -1.3 -4 0.3 -2.7 1.7 -3.2 1.7 -4.6 0.3 -0.8 -0.9 -2.2 -1.6 -2.9 -1.6 -0.8 0 -1.8 -0.8 -2.4 -1.7 -1.1 -2 -3.3 -1.2 -11.4 3.9 -4 2.5 -4.8 3.5 -4.4 5.4 0.3 1.7 -0.1 2.5 -1.7 3 -1.1 0.4 -13.8 0.6 -28.1 0.5 -21.3 -0.1 -26.5 0.2 -28.9 1.4 -4.2 2.2 -13.3 2 -14.5 -0.4 -1.5 -2.8 -6.7 -4.7 -8.6 -3.1 -2.1 1.8 -1.9 2.9 1 4.2 2.3 1 3.5 3.8 1.8 3.8 -0.5 0 -3.7 0.5 -7.2 1 -4.9 0.7 -6.7 0.6 -7.5 -0.4 -2.4 -2.7 -20.9 -8.6 -27.2 -8.6 -3.4 0 -5.7 1.9 -4.6 3.6 0.4 0.6 3 1.4 5.9 1.8 2.8 0.3 6.9 1.3 9 2 l3.8 1.4 -2.8 1.1 c-1.6 0.6 -5.2 1.1 -8 1.1 -7.1 0.1 -13.9 1.7 -15.7 3.9 -1 1.2 -4.8 2.4 -11.5 3.5 -5.5 1 -13 2.9 -16.7 4.2 l-6.8 2.3 0 -4.2z m79.7 -16.3 c0.9 -2.3 -1.9 -4.5 -6.6 -5.1 -3.6 -0.5 -4.1 -0.3 -4.1 1.5 0 1.4 1.2 2.5 3.8 3.5 4.8 2 6.1 2.1 6.9 0.1z m56.8 -8.4 c0.4 -0.6 0.1 -3.4 -0.5 -6.3 -0.8 -4.1 -0.7 -6.9 0.4 -13 1.5 -7.6 1 -12.7 -1.3 -12.7 -1.9 0 -2.9 2.9 -4 12 -1.2 9.5 -0.7 17.4 1.2 19.8 1.1 1.5 3.3 1.6 4.2 0.2z m-24.5 -14.9 c0.5 -1.1 1 -4.7 1 -8.1 0 -4.7 -0.4 -6.2 -1.6 -6.7 -2.7 -1 -4.4 2.5 -4.4 8.7 0 7.1 2.7 10.4 5 6.1z"
       id="path42" />
    <path
       d="M321.5 140 l-3 -0.8 3.1 -0.1 c1.7 0 4.6 -0.6 6.3 -1.2 2.4 -0.9 3.5 -0.9 4.4 0 2.6 2.6 -3.9 3.9 -10.8 2.1z"
       id="path44" />
    <path
       d="M339.6 140.1 c-0.3 -0.5 0.1 -1.4 0.9 -2.1 1.2 -1 1.5 -1 1.5 0.3 0 1.9 -1.6 3.1 -2.4 1.8z"
       id="path46" />
  </g>
  <text
     xml:space="preserve"
     id="text220"
     style="font-style:normal;font-variant:normal;font-weight:normal;font-stretch:normal;font-size:53.33333333px;font-family:'Myriad Pro';-inkscape-font-specification:'Myriad Pro';white-space:pre;shape-inside:url(#rect222);fill:#000000" />
</svg>
